Coordinates
version=1
nRows=13
nColumns=38
inDegrees=no

Units are S.I. units (second, meters, Newtons, ...)
If the header above contains a line with 'inDegrees', this indicates whether rotational values are in degrees (yes) or radians (no).

endheader
time	pelvis_tilt	pelvis_list	pelvis_rotation	pelvis_tx	pelvis_ty	pelvis_tz	hip_flexion_r	hip_adduction_r	hip_rotation_r	knee_angle_r	ankle_angle_r	subtalar_angle_r	mtp_angle_r	hip_flexion_l	hip_adduction_l	hip_rotation_l	knee_angle_l	ankle_angle_l	subtalar_angle_l	mtp_angle_l	lumbar_extension	lumbar_bending	lumbar_rotation	arm_flex_r	arm_add_r	arm_rot_r	elbow_flex_r	pro_sup_r	wrist_flex_r	wrist_dev_r	arm_flex_l	arm_add_l	arm_rot_l	elbow_flex_l	pro_sup_l	wrist_flex_l	wrist_dev_l
0	-0.231805	1.48484	-1.29128	0.766141	2.0529	1.05714	0.242439	-0.103586	-0.059404	1.11364	-0.0168629	0	0	-0.0698246	0.0230262	-0.398977	0.247186	-0.0531415	0	0	-0.589441	0.0618889	-0.0498446	-0.166952	-0.519866	0.172814	0.989978	1.03432	0	0	-0.0923049	-0.438908	0.040153	0.872454	1.22713	0	0
0.01	-0.298806	1.49064	-1.21924	0.766506	2.04309	1.05808	0.268553	-0.0936863	-0.0541419	1.09763	-0.00857076	0	0	-0.0750309	0.0184442	-0.396074	0.241728	-0.0540681	0	0	-0.583603	0.0675054	-0.0503293	-0.165993	-0.517113	0.169485	0.990448	1.03413	0	0	-0.0861498	-0.442077	0.0348436	0.882358	1.22707	0	0
0.02	-0.372129	1.43843	-1.06713	0.77716	2.03987	1.06235	0.216332	-0.086575	-0.148331	1.04275	-0.00770131	0	0	-0.11871	-0.0124352	-0.30045	0.2496	-0.0348339	0	0	-0.650659	0.15165	-0.0884066	-0.179456	-0.545229	0.137843	1.06184	1.0161	0	0	-0.0631385	-0.44342	0.0338141	0.924355	1.21854	0	0
0.03	-0.870935	1.42029	-0.532207	0.779727	2.03119	1.05384	0.268217	-0.0160408	-0.179269	1.01156	0.00622793	0	0	-0.0560583	-0.112415	-0.389628	0.336571	0.0157036	0	0	-0.609769	0.235936	-0.0850096	-0.206914	-0.56836	0.124583	1.10124	1.01175	0	0	-0.0784937	-0.43394	0.0133028	0.957596	1.22582	0	0
0.04	-0.46252	1.48317	-1.03348	0.768297	2.01092	1.06267	0.294272	-0.0597118	-0.0629443	0.973766	0.0093252	0	0	-0.117192	-0.00665647	-0.417145	0.230799	-0.0749341	0	0	-0.585726	0.091279	-0.062175	-0.154052	-0.509559	0.173583	0.984807	1.03304	0	0	-0.079897	-0.445419	-0.00357259	0.914578	1.24382	0	0
0.05	-0.424342	1.42642	-0.983426	0.779533	2.0076	1.06694	0.227456	-0.0620759	-0.181512	0.898883	0.00123254	0	0	-0.167591	-0.0388012	-0.30695	0.233345	-0.0871436	0	0	-0.65505	0.177134	-0.112884	-0.159711	-0.535519	0.151952	1.05091	1.02107	0	0	-0.0635531	-0.449761	-0.00969886	0.959473	1.23662	0	0
0.06	-0.502304	1.47909	-0.969687	0.770049	1.98835	1.06494	0.299181	-0.0537141	-0.105231	0.870233	0.00768911	0	0	-0.152195	-0.0144263	-0.400275	0.207217	-0.104255	0	0	-0.584096	0.106355	-0.0808245	-0.14503	-0.503587	0.183308	0.975843	1.02634	0	0	-0.0787871	-0.451403	-0.0231019	0.933697	1.25419	0	0
0.07	-0.504428	1.47519	-0.955171	0.770864	1.97687	1.06589	0.296832	-0.0512731	-0.129545	0.813906	0.00390615	0	0	-0.171059	-0.0193446	-0.396433	0.198894	-0.106894	0	0	-0.585042	0.114667	-0.0878318	-0.144706	-0.502063	0.184837	0.974992	1.01808	0	0	-0.0748287	-0.456472	-0.0231863	0.940532	1.25374	0	0
0.08	-0.509504	1.47124	-0.938647	0.771671	1.96536	1.06648	0.292456	-0.047642	-0.151338	0.751226	-0.00174893	0	0	-0.190515	-0.0245735	-0.39561	0.18893	-0.111031	0	0	-0.585628	0.12324	-0.0933141	-0.146708	-0.498157	0.178476	0.974678	1.02509	0	0	-0.070776	-0.459732	-0.025028	0.946749	1.25698	0	0
0.09	-0.51047	1.46811	-0.925563	0.772726	1.95398	1.06679	0.285698	-0.0450285	-0.173944	0.681042	-0.0113064	0	0	-0.209169	-0.0288177	-0.393124	0.178775	-0.115956	0	0	-0.585932	0.13166	-0.0985355	-0.149426	-0.495734	0.172318	0.975318	1.02876	0	0	-0.0651972	-0.463249	-0.0239121	0.952484	1.25913	0	0
0.1	-0.509045	1.46725	-0.915145	0.773551	1.94266	1.06668	0.278229	-0.0429784	-0.194653	0.605804	-0.0233039	0	0	-0.225699	-0.0315631	-0.387962	0.168789	-0.12024	0	0	-0.585562	0.138327	-0.105882	-0.149798	-0.492906	0.168265	0.975027	1.03225	0	0	-0.0613684	-0.468095	-0.0238575	0.959393	1.26001	0	0
0.11	-0.512848	1.4682	-0.90123	0.774106	1.93145	1.06622	0.272405	-0.041702	-0.21068	0.536116	-0.0361479	0	0	-0.240026	-0.0334714	-0.382121	0.159292	-0.124072	0	0	-0.583563	0.143046	-0.112343	-0.148866	-0.490074	0.165607	0.972874	1.03581	0	0	-0.0573961	-0.473295	-0.0233892	0.965834	1.25984	0	0
0.12	-0.506291	1.46665	-0.898036	0.774809	1.91983	1.06544	0.256918	-0.0364417	-0.230288	0.440627	-0.0570728	0	0	-0.257582	-0.0367127	-0.380973	0.150684	-0.125762	0	0	-0.583188	0.14849	-0.117717	-0.150222	-0.489223	0.162417	0.97305	1.03819	0	0	-0.0541813	-0.47803	-0.0221027	0.972707	1.25962	0	0
